<svg width="276" height="278" viewBox="0 0 276 278" fill="none" xmlns="http://www.w3.org/2000/svg">
<rect x="34.5" width="241.5" height="243.25" fill="black"/>
<rect x="54.2144" y="19.8572" width="202.071" height="178.714" fill="white"/>
<rect y="34.75" width="241.5" height="243.25" fill="black"/>
<rect x="19.7144" y="54.6072" width="202.071" height="178.714" fill="white"/>
<path d="M115.331 201.86V197.691H106.953V189.359H98.5749V181.026H90.1968V172.694H81.8187V164.361H73.4406V156.029H65.0624V147.696H56.6843L56.6787 106.022H65.0568V97.6897H73.4349V89.3572H98.5756V97.6897H106.954V106.022H115.332V114.355H123.71V106.022H132.088V97.6897H140.466V89.3572H165.601V97.6897H173.979V106.022H182.357V147.69H173.979V156.023H165.601V164.355H157.223V172.688H148.845V181.02H140.467V189.353H132.089V197.685H123.711V206.018H115.332L115.331 201.86Z" fill="#FF6565"/>
</svg>
